<svg width="16" height="17" viewBox="0 0 16 17" fill="none" xmlns="http://www.w3.org/2000/svg">
<path d="M2.34375 15.0938C4.1875 16.9688 7.1875 17 9.0625 15.0938L14.4375 9.59375C14.625 9.40625 14.625 9.09375 14.4062 8.90625L13.6875 8.1875C13.5 8 13.1875 8 13 8.1875L7.625 13.6875C6.5625 14.7812 4.84375 14.7812 3.78125 13.6875C2.71875 12.5938 2.71875 10.7812 3.8125 9.6875L10.375 2.96875C10.9688 2.375 11.9375 2.375 12.5312 2.96875C13.125 3.59375 13.125 4.625 12.5312 5.25L6.8125 11.0938C6.6875 11.2188 6.46875 11.2188 6.3125 11.0938C6.1875 10.9375 6.1875 10.6562 6.34375 10.5L10.8438 5.9375C11.0312 5.71875 11.0312 5.40625 10.8125 5.21875L10.125 4.53125C9.90625 4.3125 9.59375 4.34375 9.40625 4.53125L4.90625 9.125C4 10.0312 3.96875 11.5312 4.875 12.4688C5.78125 13.4375 7.3125 13.4375 8.25 12.5L13.9688 6.65625C15.3438 5.25 15.3125 2.96875 13.9688 1.5625C12.5625 0.15625 10.3125 0.15625 8.9375 1.5625L2.375 8.28125C0.53125 10.1562 0.5 13.1875 2.34375 15.0938Z" fill="#656565"/>
</svg>
